<svg width="22" height="22" viewBox="0 0 22 22" fill="none" xmlns="http://www.w3.org/2000/svg">
<rect x="10" y="19" width="2" height="2" transform="rotate(-90 10 19)" fill="#FF0E12"/>
<rect x="10" y="17" width="2" height="2" transform="rotate(-90 10 17)" fill="#FF0E12"/>
<rect x="10" y="15" width="2" height="2" transform="rotate(-90 10 15)" fill="#FF0E12"/>
<rect x="10" y="13" width="2" height="2" transform="rotate(-90 10 13)" fill="#FF0E12"/>
<rect x="10" y="11" width="2" height="2" transform="rotate(-90 10 11)" fill="#FF0E12"/>
<rect x="10" y="9" width="2" height="2" transform="rotate(-90 10 9)" fill="#FF0E12"/>
<rect width="2" height="2" transform="matrix(-2.3597e-08 -1 -1 2.3597e-08 10 17)" fill="#FF0E12"/>
<rect x="12" y="17" width="2" height="2" transform="rotate(-90 12 17)" fill="#FF0E12"/>
<rect width="2" height="2" transform="matrix(-2.3597e-08 -1 -1 2.3597e-08 10 15)" fill="#FF0E12"/>
<rect x="12" y="15" width="2" height="2" transform="rotate(-90 12 15)" fill="#FF0E12"/>
<rect width="2" height="2" transform="matrix(-2.3597e-08 -1 -1 2.3597e-08 10 13)" fill="#FF0E12"/>
<rect x="12" y="13" width="2" height="2" transform="rotate(-90 12 13)" fill="#FF0E12"/>
<rect width="2" height="2" transform="matrix(-2.3597e-08 -1 -1 2.3597e-08 10 11)" fill="#FF0E12"/>
<rect width="2" height="2" transform="matrix(-2.3597e-08 -1 -1 2.3597e-08 10 9)" fill="#FF0E12"/>
<rect x="12" y="9" width="2" height="2" transform="rotate(-90 12 9)" fill="#FF0E12"/>
<rect width="2" height="2" transform="matrix(-2.3597e-08 -1 -1 2.3597e-08 10 7)" fill="#FF0E12"/>
<rect x="12" y="7" width="2" height="2" transform="rotate(-90 12 7)" fill="#FF0E12"/>
<rect width="2" height="2" transform="matrix(-2.3597e-08 -1 -1 2.3597e-08 8 15)" fill="#FF0E12"/>
<rect x="14" y="15" width="2" height="2" transform="rotate(-90 14 15)" fill="#FF0E12"/>
<rect width="2" height="2" transform="matrix(-2.3597e-08 -1 -1 2.3597e-08 8 13)" fill="#FF0E12"/>
<rect x="14" y="13" width="2" height="2" transform="rotate(-90 14 13)" fill="#FF0E12"/>
<rect width="2" height="2" transform="matrix(-2.3597e-08 -1 -1 2.3597e-08 8 11)" fill="#FF0E12"/>
<rect x="14" y="11" width="2" height="2" transform="rotate(-90 14 11)" fill="#FF0E12"/>
<rect width="2" height="2" transform="matrix(-2.3597e-08 -1 -1 2.3597e-08 8 9)" fill="#FF0E12"/>
<rect width="2" height="2" transform="matrix(-2.3597e-08 -1 -1 2.3597e-08 8 7)" fill="#FF0E12"/>
<rect x="14" y="7" width="2" height="2" transform="rotate(-90 14 7)" fill="#FF0E12"/>
<rect width="2" height="2" transform="matrix(-2.3597e-08 -1 -1 2.3597e-08 6 13)" fill="#FF0E12"/>
<rect x="16" y="13" width="2" height="2" transform="rotate(-90 16 13)" fill="#FF0E12"/>
<rect width="2" height="2" transform="matrix(-2.3597e-08 -1 -1 2.3597e-08 6 11)" fill="#FF0E12"/>
<rect x="16" y="11" width="2" height="2" transform="rotate(-90 16 11)" fill="#FF0E12"/>
<rect width="2" height="2" transform="matrix(-2.3597e-08 -1 -1 2.3597e-08 6 9)" fill="#FF0E12"/>
<rect x="16" y="9" width="2" height="2" transform="rotate(-90 16 9)" fill="#FF0E12"/>
<rect width="2" height="2" transform="matrix(-2.3597e-08 -1 -1 2.3597e-08 6 7)" fill="#FF0E12"/>
<rect x="16" y="7" width="2" height="2" transform="rotate(-90 16 7)" fill="#FF0E12"/>
<rect width="2" height="2" transform="matrix(-2.3597e-08 -1 -1 2.3597e-08 4 11)" fill="#FF0E12"/>
<rect x="18" y="11" width="2" height="2" transform="rotate(-90 18 11)" fill="#FF0E12"/>
<rect width="2" height="2" transform="matrix(-2.3597e-08 -1 -1 2.3597e-08 4 9)" fill="#FF0E12"/>
<rect x="18" y="9" width="2" height="2" transform="rotate(-90 18 9)" fill="#FF0E12"/>
<rect width="2" height="2" transform="matrix(-2.3597e-08 -1 -1 2.3597e-08 4 7)" fill="#FF0E12"/>
<rect x="18" y="7" width="2" height="2" transform="rotate(-90 18 7)" fill="#FF0E12"/>
<rect width="2" height="2" transform="matrix(-2.3597e-08 -1 -1 2.3597e-08 6 5)" fill="#FF0E12"/>
<rect x="16" y="5" width="2" height="2" transform="rotate(-90 16 5)" fill="#FF0E12"/>
<rect width="2" height="2" transform="matrix(-2.3597e-08 -1 -1 2.3597e-08 8 5)" fill="#FF0E12"/>
<rect x="14" y="5" width="2" height="2" transform="rotate(-90 14 5)" fill="#FF0E12"/>
<rect width="2" height="2" transform="matrix(-2.3597e-08 -1 -1 2.3597e-08 10 5)" fill="#FF0E12"/>
<rect x="12" y="5" width="2" height="2" transform="rotate(-90 12 5)" fill="#FF0E12"/>
<rect x="10" y="7" width="2" height="2" transform="rotate(-90 10 7)" fill="#FF0E12"/>
</svg>
