<svg width="22" height="22" viewBox="0 0 22 22" fill="none" xmlns="http://www.w3.org/2000/svg">
<rect x="2" y="8" width="2" height="2" transform="rotate(-90 2 8)" fill="#FF0095"/>
<rect width="2" height="2" transform="matrix(2.3597e-08 1 1 -2.3597e-08 2 14)" fill="#FF0095"/>
<rect width="2" height="2" transform="matrix(2.3597e-08 1 1 -2.3597e-08 2 12)" fill="#FF0095"/>
<rect width="2" height="2" transform="matrix(2.3597e-08 1 1 -2.3597e-08 2 10)" fill="#FF0095"/>
<rect width="2" height="2" transform="matrix(2.3597e-08 1 1 -2.3597e-08 10 10)" fill="#FF0095"/>
<rect width="2" height="2" transform="matrix(2.3597e-08 1 1 -2.3597e-08 8 10)" fill="#FF0095"/>
<rect width="2" height="2" transform="matrix(2.3597e-08 1 1 -2.3597e-08 10 8)" fill="#FF0095"/>
<rect width="2" height="2" transform="matrix(2.3597e-08 1 1 -2.3597e-08 12 10)" fill="#FF0095"/>
<rect width="2" height="2" transform="matrix(2.3597e-08 1 1 -2.3597e-08 10 12)" fill="#FF0095"/>
<rect width="2" height="2" transform="matrix(2.3597e-08 1 1 -2.3597e-08 18 6)" fill="#FF0095"/>
<rect width="2" height="2" transform="matrix(2.3597e-08 1 1 -2.3597e-08 14 6)" fill="#FF0095"/>
<rect width="2" height="2" transform="matrix(2.3597e-08 1 1 -2.3597e-08 14 14)" fill="#FF0095"/>
<rect width="2" height="2" transform="matrix(2.3597e-08 1 1 -2.3597e-08 6 14)" fill="#FF0095"/>
<rect width="2" height="2" transform="matrix(2.3597e-08 1 1 -2.3597e-08 8 12)" fill="#FF0095"/>
<rect width="2" height="2" transform="matrix(2.3597e-08 1 1 -2.3597e-08 8 8)" fill="#FF0095"/>
<rect width="2" height="2" transform="matrix(2.3597e-08 1 1 -2.3597e-08 12 12)" fill="#FF0095"/>
<rect width="2" height="2" transform="matrix(2.3597e-08 1 1 -2.3597e-08 12 8)" fill="#FF0095"/>
<rect width="2" height="2" transform="matrix(2.3597e-08 1 1 -2.3597e-08 6 6)" fill="#FF0095"/>
<rect width="2" height="2" transform="matrix(2.3597e-08 1 1 -2.3597e-08 2 8)" fill="#FF0095"/>
<rect width="2" height="2" transform="matrix(2.3597e-08 1 1 -2.3597e-08 14 2)" fill="#FF0095"/>
<rect x="14" y="20" width="2" height="2" transform="rotate(-90 14 20)" fill="#FF0095"/>
<rect x="12" y="20" width="2" height="2" transform="rotate(-90 12 20)" fill="#FF0095"/>
<rect x="10" y="20" width="2" height="2" transform="rotate(-90 10 20)" fill="#FF0095"/>
<rect x="8" y="20" width="2" height="2" transform="rotate(-90 8 20)" fill="#FF0095"/>
<rect x="6" y="4" width="2" height="2" transform="rotate(-90 6 4)" fill="#FF0095"/>
<rect x="8" y="4" width="2" height="2" transform="rotate(-90 8 4)" fill="#FF0095"/>
<rect x="10" y="4" width="2" height="2" transform="rotate(-90 10 4)" fill="#FF0095"/>
<rect x="12" y="4" width="2" height="2" transform="rotate(-90 12 4)" fill="#FF0095"/>
<rect width="2" height="2" transform="matrix(2.3597e-08 1 1 -2.3597e-08 6 18)" fill="#FF0095"/>
<rect x="18" y="16" width="2" height="2" transform="rotate(-90 18 16)" fill="#FF0095"/>
<rect x="18" y="14" width="2" height="2" transform="rotate(-90 18 14)" fill="#FF0095"/>
<rect x="18" y="12" width="2" height="2" transform="rotate(-90 18 12)" fill="#FF0095"/>
<rect x="18" y="10" width="2" height="2" transform="rotate(-90 18 10)" fill="#FF0095"/>
</svg>
