<svg width="22" height="22" viewBox="0 0 22 22" fill="none" xmlns="http://www.w3.org/2000/svg">
<rect x="6" y="10.0001" width="2" height="2" transform="rotate(-90 6 10.0001)" fill="#00C6A9"/>
<rect width="2" height="2" transform="matrix(-2.3597e-08 -1 -1 2.3597e-08 16 6.00006)" fill="#00C6A9"/>
<rect width="2" height="2" transform="matrix(2.3597e-08 1 1 -2.3597e-08 6 16)" fill="#00C6A9"/>
<rect x="16" y="12" width="2" height="2" transform="rotate(90 16 12)" fill="#00C6A9"/>
<rect x="2" y="14.0001" width="2" height="2" transform="rotate(-90 2 14.0001)" fill="#00C6A9"/>
<rect width="2" height="2" transform="matrix(-2.3597e-08 -1 -1 2.3597e-08 20 10.0001)" fill="#00C6A9"/>
<rect width="2" height="2" transform="matrix(2.3597e-08 1 1 -2.3597e-08 2 12)" fill="#00C6A9"/>
<rect x="20" y="8" width="2" height="2" transform="rotate(90 20 8)" fill="#00C6A9"/>
<rect x="4" y="14.0001" width="2" height="2" transform="rotate(-90 4 14.0001)" fill="#00C6A9"/>
<rect width="2" height="2" transform="matrix(-2.3597e-08 -1 -1 2.3597e-08 18 10.0001)" fill="#00C6A9"/>
<rect width="2" height="2" transform="matrix(2.3597e-08 1 1 -2.3597e-08 4 12)" fill="#00C6A9"/>
<rect x="18" y="8" width="2" height="2" transform="rotate(90 18 8)" fill="#00C6A9"/>
<rect x="8" y="10.0001" width="2" height="2" transform="rotate(-90 8 10.0001)" fill="#00C6A9"/>
<rect width="2" height="2" transform="matrix(-2.3597e-08 -1 -1 2.3597e-08 14 6.00009)" fill="#00C6A9"/>
<rect width="2" height="2" transform="matrix(2.3597e-08 1 1 -2.3597e-08 8 16)" fill="#00C6A9"/>
<rect x="14" y="12" width="2" height="2" transform="rotate(90 14 12)" fill="#00C6A9"/>
<rect x="6" y="10.0001" width="2" height="2" transform="rotate(-90 6 10.0001)" fill="#00C6A9"/>
<rect width="2" height="2" transform="matrix(-2.3597e-08 -1 -1 2.3597e-08 16 6.00006)" fill="#00C6A9"/>
<rect width="2" height="2" transform="matrix(2.3597e-08 1 1 -2.3597e-08 6 16)" fill="#00C6A9"/>
<rect x="16" y="12" width="2" height="2" transform="rotate(90 16 12)" fill="#00C6A9"/>
<rect x="2" y="14.0001" width="2" height="2" transform="rotate(-90 2 14.0001)" fill="#00C6A9"/>
<rect width="2" height="2" transform="matrix(-2.3597e-08 -1 -1 2.3597e-08 20 10.0001)" fill="#00C6A9"/>
<rect width="2" height="2" transform="matrix(2.3597e-08 1 1 -2.3597e-08 2 12)" fill="#00C6A9"/>
<rect x="20" y="8" width="2" height="2" transform="rotate(90 20 8)" fill="#00C6A9"/>
<rect x="4" y="14.0001" width="2" height="2" transform="rotate(-90 4 14.0001)" fill="#00C6A9"/>
<rect width="2" height="2" transform="matrix(-2.3597e-08 -1 -1 2.3597e-08 18 10.0001)" fill="#00C6A9"/>
<rect width="2" height="2" transform="matrix(2.3597e-08 1 1 -2.3597e-08 4 12)" fill="#00C6A9"/>
<rect x="18" y="8" width="2" height="2" transform="rotate(90 18 8)" fill="#00C6A9"/>
<rect x="8" y="10.0001" width="2" height="2" transform="rotate(-90 8 10.0001)" fill="#00C6A9"/>
<rect width="2" height="2" transform="matrix(-2.3597e-08 -1 -1 2.3597e-08 14 6.00009)" fill="#00C6A9"/>
<rect width="2" height="2" transform="matrix(2.3597e-08 1 1 -2.3597e-08 8 16)" fill="#00C6A9"/>
<rect x="14" y="12" width="2" height="2" transform="rotate(90 14 12)" fill="#00C6A9"/>
<rect x="4" y="12" width="2" height="2" transform="rotate(-90 4 12)" fill="#00C6A9"/>
<rect width="2" height="2" transform="matrix(-2.3597e-08 -1 -1 2.3597e-08 18 8.00003)" fill="#00C6A9"/>
<rect width="2" height="2" transform="matrix(2.3597e-08 1 1 -2.3597e-08 4 14.0001)" fill="#00C6A9"/>
<rect x="18" y="10.0001" width="2" height="2" transform="rotate(90 18 10.0001)" fill="#00C6A9"/>
<rect x="6" y="12" width="2" height="2" transform="rotate(-90 6 12)" fill="#00C6A9"/>
<rect width="2" height="2" transform="matrix(-2.3597e-08 -1 -1 2.3597e-08 16 8.00003)" fill="#00C6A9"/>
<rect width="2" height="2" transform="matrix(2.3597e-08 1 1 -2.3597e-08 6 14.0001)" fill="#00C6A9"/>
<rect x="16" y="10.0001" width="2" height="2" transform="rotate(90 16 10.0001)" fill="#00C6A9"/>
<rect x="4" y="12" width="2" height="2" transform="rotate(-90 4 12)" fill="#00C6A9"/>
<rect width="2" height="2" transform="matrix(-2.3597e-08 -1 -1 2.3597e-08 18 8.00003)" fill="#00C6A9"/>
<rect width="2" height="2" transform="matrix(2.3597e-08 1 1 -2.3597e-08 4 14.0001)" fill="#00C6A9"/>
<rect x="18" y="10.0001" width="2" height="2" transform="rotate(90 18 10.0001)" fill="#00C6A9"/>
<rect x="6" y="12" width="2" height="2" transform="rotate(-90 6 12)" fill="#00C6A9"/>
<rect width="2" height="2" transform="matrix(-2.3597e-08 -1 -1 2.3597e-08 16 8.00003)" fill="#00C6A9"/>
<rect width="2" height="2" transform="matrix(2.3597e-08 1 1 -2.3597e-08 6 14.0001)" fill="#00C6A9"/>
<rect x="16" y="10.0001" width="2" height="2" transform="rotate(90 16 10.0001)" fill="#00C6A9"/>
</svg>
