<svg width="22" height="22" viewBox="0 0 22 22" fill="none" xmlns="http://www.w3.org/2000/svg">
<rect x="8" y="8" width="2" height="2" fill="#9900FF"/>
<rect x="6" y="8" width="2" height="2" fill="#9900FF"/>
<rect x="8" y="6" width="2" height="2" fill="#9900FF"/>
<rect x="8" y="12" width="2" height="2" fill="#9900FF"/>
<rect x="6" y="12" width="2" height="2" fill="#9900FF"/>
<rect x="8" y="14" width="2" height="2" fill="#9900FF"/>
<rect x="8" y="10" width="2" height="2" fill="#9900FF"/>
<rect x="6" y="10" width="2" height="2" fill="#9900FF"/>
<rect x="6" y="10" width="2" height="2" fill="#9900FF"/>
<rect x="4" y="10" width="2" height="2" fill="#9900FF"/>
<rect x="2" y="10" width="2" height="2" fill="#9900FF"/>
<rect x="10" y="8" width="2" height="2" fill="#9900FF"/>
<rect x="10" y="6" width="2" height="2" fill="#9900FF"/>
<rect x="10" y="6" width="2" height="2" fill="#9900FF"/>
<rect x="10" y="4" width="2" height="2" fill="#9900FF"/>
<rect x="10" y="2" width="2" height="2" fill="#9900FF"/>
<rect x="10" y="12" width="2" height="2" fill="#9900FF"/>
<rect x="10" y="14" width="2" height="2" fill="#9900FF"/>
<rect x="10" y="14" width="2" height="2" fill="#9900FF"/>
<rect x="10" y="16" width="2" height="2" fill="#9900FF"/>
<rect x="10" y="18" width="2" height="2" fill="#9900FF"/>
<rect x="12" y="8" width="2" height="2" fill="#9900FF"/>
<rect x="14" y="8" width="2" height="2" fill="#9900FF"/>
<rect x="12" y="6" width="2" height="2" fill="#9900FF"/>
<rect x="12" y="12" width="2" height="2" fill="#9900FF"/>
<rect x="14" y="12" width="2" height="2" fill="#9900FF"/>
<rect x="12" y="14" width="2" height="2" fill="#9900FF"/>
<rect x="10" y="10" width="2" height="2" fill="#9900FF"/>
<rect x="12" y="10" width="2" height="2" fill="#9900FF"/>
<rect x="14" y="10" width="2" height="2" fill="#9900FF"/>
<rect x="14" y="10" width="2" height="2" fill="#9900FF"/>
<rect x="16" y="10" width="2" height="2" fill="#9900FF"/>
<rect x="18" y="10" width="2" height="2" fill="#9900FF"/>
</svg>
