<svg width="22" height="22" viewBox="0 0 22 22" fill="none" xmlns="http://www.w3.org/2000/svg">
<rect width="2" height="2" transform="matrix(2.3597e-08 1 1 -2.3597e-08 14 2)" fill="#FF00F2"/>
<rect width="2" height="2" transform="matrix(2.3597e-08 1 1 -2.3597e-08 14 14)" fill="#FF00F2"/>
<rect x="6" y="4" width="2" height="2" transform="rotate(-90 6 4)" fill="#FF00F2"/>
<rect x="6" y="16" width="2" height="2" transform="rotate(-90 6 16)" fill="#FF00F2"/>
<rect x="4" y="4" width="2" height="2" transform="rotate(-90 4 4)" fill="#FF00F2"/>
<rect x="4" y="6" width="2" height="2" transform="rotate(-90 4 6)" fill="#FF00F2"/>
<rect x="4" y="10" width="2" height="2" transform="rotate(-90 4 10)" fill="#FF00F2"/>
<rect x="4" y="12" width="2" height="2" transform="rotate(-90 4 12)" fill="#FF00F2"/>
<rect x="4" y="14" width="2" height="2" transform="rotate(-90 4 14)" fill="#FF00F2"/>
<rect x="6" y="6" width="2" height="2" transform="rotate(-90 6 6)" fill="#FF00F2"/>
<rect x="6" y="8" width="2" height="2" transform="rotate(-90 6 8)" fill="#FF00F2"/>
<rect x="4" y="8" width="2" height="2" transform="rotate(-90 4 8)" fill="#FF00F2"/>
<rect x="6" y="10" width="2" height="2" transform="rotate(-90 6 10)" fill="#FF00F2"/>
<rect x="6" y="14" width="2" height="2" transform="rotate(-90 6 14)" fill="#FF00F2"/>
<rect x="8" y="6" width="2" height="2" transform="rotate(-90 8 6)" fill="#FF00F2"/>
<rect x="8" y="8" width="2" height="2" transform="rotate(-90 8 8)" fill="#FF00F2"/>
<rect x="8" y="10" width="2" height="2" transform="rotate(-90 8 10)" fill="#FF00F2"/>
<rect x="8" y="12" width="2" height="2" transform="rotate(-90 8 12)" fill="#FF00F2"/>
<rect x="10" y="6" width="2" height="2" transform="rotate(-90 10 6)" fill="#FF00F2"/>
<rect x="10" y="10" width="2" height="2" transform="rotate(-90 10 10)" fill="#FF00F2"/>
<rect x="10" y="14" width="2" height="2" transform="rotate(-90 10 14)" fill="#FF00F2"/>
<rect x="12" y="12" width="2" height="2" transform="rotate(-90 12 12)" fill="#FF00F2"/>
<rect x="12" y="14" width="2" height="2" transform="rotate(-90 12 14)" fill="#FF00F2"/>
<rect x="14" y="6" width="2" height="2" transform="rotate(-90 14 6)" fill="#FF00F2"/>
<rect x="14" y="10" width="2" height="2" transform="rotate(-90 14 10)" fill="#FF00F2"/>
<rect x="14" y="12" width="2" height="2" transform="rotate(-90 14 12)" fill="#FF00F2"/>
<rect x="14" y="14" width="2" height="2" transform="rotate(-90 14 14)" fill="#FF00F2"/>
<rect x="4" y="16" width="2" height="2" transform="rotate(-90 4 16)" fill="#FF00F2"/>
<rect x="2" y="6" width="2" height="2" transform="rotate(-90 2 6)" fill="#FF00F2"/>
<rect x="2" y="8" width="2" height="2" transform="rotate(-90 2 8)" fill="#FF00F2"/>
<rect x="2" y="10" width="2" height="2" transform="rotate(-90 2 10)" fill="#FF00F2"/>
<rect x="2" y="12" width="2" height="2" transform="rotate(-90 2 12)" fill="#FF00F2"/>
<rect x="2" y="14" width="2" height="2" transform="rotate(-90 2 14)" fill="#FF00F2"/>
<rect x="16" y="6" width="2" height="2" transform="rotate(-90 16 6)" fill="#FF00F2"/>
<rect x="16" y="8" width="2" height="2" transform="rotate(-90 16 8)" fill="#FF00F2"/>
<rect x="16" y="10" width="2" height="2" transform="rotate(-90 16 10)" fill="#FF00F2"/>
<rect x="16" y="12" width="2" height="2" transform="rotate(-90 16 12)" fill="#FF00F2"/>
<rect x="16" y="14" width="2" height="2" transform="rotate(-90 16 14)" fill="#FF00F2"/>
<rect x="8" y="4" width="2" height="2" transform="rotate(-90 8 4)" fill="#FF00F2"/>
<rect x="8" y="16" width="2" height="2" transform="rotate(-90 8 16)" fill="#FF00F2"/>
<rect x="9" y="18" width="2" height="2" transform="rotate(-90 9 18)" fill="#FF00F2"/>
<rect width="2" height="2" transform="matrix(2.3597e-08 1 1 -2.3597e-08 11 18)" fill="#FF00F2"/>
<rect width="2" height="2" transform="matrix(2.3597e-08 1 1 -2.3597e-08 9 18)" fill="#FF00F2"/>
<rect x="7" y="20" width="2" height="2" transform="rotate(-90 7 20)" fill="#FF00F2"/>
<rect x="10" y="4" width="2" height="2" transform="rotate(-90 10 4)" fill="#FF00F2"/>
<rect x="10" y="16" width="2" height="2" transform="rotate(-90 10 16)" fill="#FF00F2"/>
<rect x="12" y="4" width="2" height="2" transform="rotate(-90 12 4)" fill="#FF00F2"/>
<rect x="12" y="16" width="2" height="2" transform="rotate(-90 12 16)" fill="#FF00F2"/>
</svg>
