<svg width="22" height="22" viewBox="0 0 22 22" fill="none" xmlns="http://www.w3.org/2000/svg">
<rect width="2" height="2" transform="matrix(2.3597e-08 1 1 -2.3597e-08 14 2)" fill="#00699E"/>
<rect width="2" height="2" transform="matrix(2.3597e-08 1 1 -2.3597e-08 14 18)" fill="#00699E"/>
<rect x="6" y="4" width="2" height="2" transform="rotate(-90 6 4)" fill="#00699E"/>
<rect x="6" y="20" width="2" height="2" transform="rotate(-90 6 20)" fill="#00699E"/>
<rect x="4" y="6" width="2" height="2" transform="rotate(-90 4 6)" fill="#00699E"/>
<rect x="16" y="6" width="2" height="2" transform="rotate(-90 16 6)" fill="#00699E"/>
<rect x="8" y="8" width="2" height="2" transform="rotate(-90 8 8)" fill="#00699E"/>
<rect x="8" y="10" width="2" height="2" transform="rotate(-90 8 10)" fill="#00699E"/>
<rect x="8" y="12" width="2" height="2" transform="rotate(-90 8 12)" fill="#00699E"/>
<rect x="8" y="14" width="2" height="2" transform="rotate(-90 8 14)" fill="#00699E"/>
<rect x="8" y="16" width="2" height="2" transform="rotate(-90 8 16)" fill="#00699E"/>
<rect x="8" y="18" width="2" height="2" transform="rotate(-90 8 18)" fill="#00699E"/>
<rect x="6" y="6" width="2" height="2" transform="rotate(-90 6 6)" fill="#00699E"/>
<rect x="6" y="8" width="2" height="2" transform="rotate(-90 6 8)" fill="#00699E"/>
<rect x="6" y="10" width="2" height="2" transform="rotate(-90 6 10)" fill="#00699E"/>
<rect x="6" y="12" width="2" height="2" transform="rotate(-90 6 12)" fill="#00699E"/>
<rect x="6" y="14" width="2" height="2" transform="rotate(-90 6 14)" fill="#00699E"/>
<rect x="6" y="16" width="2" height="2" transform="rotate(-90 6 16)" fill="#00699E"/>
<rect x="6" y="18" width="2" height="2" transform="rotate(-90 6 18)" fill="#00699E"/>
<rect x="10" y="8" width="2" height="2" transform="rotate(-90 10 8)" fill="#00699E"/>
<rect x="10" y="10" width="2" height="2" transform="rotate(-90 10 10)" fill="#00699E"/>
<rect x="10" y="12" width="2" height="2" transform="rotate(-90 10 12)" fill="#00699E"/>
<rect x="10" y="14" width="2" height="2" transform="rotate(-90 10 14)" fill="#00699E"/>
<rect x="10" y="16" width="2" height="2" transform="rotate(-90 10 16)" fill="#00699E"/>
<rect x="10" y="18" width="2" height="2" transform="rotate(-90 10 18)" fill="#00699E"/>
<rect x="12" y="8" width="2" height="2" transform="rotate(-90 12 8)" fill="#00699E"/>
<rect x="12" y="10" width="2" height="2" transform="rotate(-90 12 10)" fill="#00699E"/>
<rect x="12" y="12" width="2" height="2" transform="rotate(-90 12 12)" fill="#00699E"/>
<rect x="12" y="14" width="2" height="2" transform="rotate(-90 12 14)" fill="#00699E"/>
<rect x="12" y="16" width="2" height="2" transform="rotate(-90 12 16)" fill="#00699E"/>
<rect x="12" y="18" width="2" height="2" transform="rotate(-90 12 18)" fill="#00699E"/>
<rect x="14" y="6" width="2" height="2" transform="rotate(-90 14 6)" fill="#00699E"/>
<rect x="14" y="8" width="2" height="2" transform="rotate(-90 14 8)" fill="#00699E"/>
<rect x="14" y="10" width="2" height="2" transform="rotate(-90 14 10)" fill="#00699E"/>
<rect x="14" y="12" width="2" height="2" transform="rotate(-90 14 12)" fill="#00699E"/>
<rect x="14" y="14" width="2" height="2" transform="rotate(-90 14 14)" fill="#00699E"/>
<rect x="14" y="16" width="2" height="2" transform="rotate(-90 14 16)" fill="#00699E"/>
<rect x="14" y="18" width="2" height="2" transform="rotate(-90 14 18)" fill="#00699E"/>
<rect x="4" y="8" width="2" height="2" transform="rotate(-90 4 8)" fill="#00699E"/>
<rect x="16" y="8" width="2" height="2" transform="rotate(-90 16 8)" fill="#00699E"/>
<rect x="4" y="10" width="2" height="2" transform="rotate(-90 4 10)" fill="#00699E"/>
<rect x="16" y="10" width="2" height="2" transform="rotate(-90 16 10)" fill="#00699E"/>
<rect x="4" y="12" width="2" height="2" transform="rotate(-90 4 12)" fill="#00699E"/>
<rect x="16" y="12" width="2" height="2" transform="rotate(-90 16 12)" fill="#00699E"/>
<rect x="4" y="14" width="2" height="2" transform="rotate(-90 4 14)" fill="#00699E"/>
<rect x="16" y="14" width="2" height="2" transform="rotate(-90 16 14)" fill="#00699E"/>
<rect x="4" y="16" width="2" height="2" transform="rotate(-90 4 16)" fill="#00699E"/>
<rect x="16" y="16" width="2" height="2" transform="rotate(-90 16 16)" fill="#00699E"/>
<rect x="4" y="18" width="2" height="2" transform="rotate(-90 4 18)" fill="#00699E"/>
<rect x="16" y="18" width="2" height="2" transform="rotate(-90 16 18)" fill="#00699E"/>
<rect x="8" y="4" width="2" height="2" transform="rotate(-90 8 4)" fill="#00699E"/>
<rect x="8" y="20" width="2" height="2" transform="rotate(-90 8 20)" fill="#00699E"/>
<rect x="10" y="4" width="2" height="2" transform="rotate(-90 10 4)" fill="#00699E"/>
<rect x="10" y="20" width="2" height="2" transform="rotate(-90 10 20)" fill="#00699E"/>
<rect x="12" y="4" width="2" height="2" transform="rotate(-90 12 4)" fill="#00699E"/>
<rect x="12" y="20" width="2" height="2" transform="rotate(-90 12 20)" fill="#00699E"/>
</svg>
