<svg width="22" height="22" viewBox="0 0 22 22" fill="none" xmlns="http://www.w3.org/2000/svg">
<rect x="2" y="8" width="2" height="2" transform="rotate(-90 2 8)" fill="#0051FF"/>
<rect width="2" height="2" transform="matrix(2.3597e-08 1 1 -2.3597e-08 2 14)" fill="#0051FF"/>
<rect width="2" height="2" transform="matrix(2.3597e-08 1 1 -2.3597e-08 2 12)" fill="#0051FF"/>
<rect width="2" height="2" transform="matrix(2.3597e-08 1 1 -2.3597e-08 2 10)" fill="#0051FF"/>
<rect width="2" height="2" transform="matrix(2.3597e-08 1 1 -2.3597e-08 2 8)" fill="#0051FF"/>
<rect width="2" height="2" transform="matrix(2.3597e-08 1 1 -2.3597e-08 14 2)" fill="#0051FF"/>
<rect x="14" y="20" width="2" height="2" transform="rotate(-90 14 20)" fill="#0051FF"/>
<rect x="14" y="18" width="2" height="2" transform="rotate(-90 14 18)" fill="#0051FF"/>
<rect x="14" y="16" width="2" height="2" transform="rotate(-90 14 16)" fill="#0051FF"/>
<rect x="14" y="14" width="2" height="2" transform="rotate(-90 14 14)" fill="#0051FF"/>
<rect x="14" y="12" width="2" height="2" transform="rotate(-90 14 12)" fill="#0051FF"/>
<rect x="14" y="10" width="2" height="2" transform="rotate(-90 14 10)" fill="#0051FF"/>
<rect x="14" y="8" width="2" height="2" transform="rotate(-90 14 8)" fill="#0051FF"/>
<rect x="14" y="6" width="2" height="2" transform="rotate(-90 14 6)" fill="#0051FF"/>
<rect x="12" y="20" width="2" height="2" transform="rotate(-90 12 20)" fill="#0051FF"/>
<rect x="10" y="20" width="2" height="2" transform="rotate(-90 10 20)" fill="#0051FF"/>
<rect x="10" y="18" width="2" height="2" transform="rotate(-90 10 18)" fill="#0051FF"/>
<rect x="10" y="16" width="2" height="2" transform="rotate(-90 10 16)" fill="#0051FF"/>
<rect x="10" y="14" width="2" height="2" transform="rotate(-90 10 14)" fill="#0051FF"/>
<rect x="10" y="12" width="2" height="2" transform="rotate(-90 10 12)" fill="#0051FF"/>
<rect x="10" y="10" width="2" height="2" transform="rotate(-90 10 10)" fill="#0051FF"/>
<rect x="10" y="8" width="2" height="2" transform="rotate(-90 10 8)" fill="#0051FF"/>
<rect x="10" y="6" width="2" height="2" transform="rotate(-90 10 6)" fill="#0051FF"/>
<rect x="8" y="20" width="2" height="2" transform="rotate(-90 8 20)" fill="#0051FF"/>
<rect x="4" y="6" width="2" height="2" transform="rotate(-90 4 6)" fill="#0051FF"/>
<rect width="2" height="2" transform="matrix(2.3597e-08 1 1 -2.3597e-08 4 16)" fill="#0051FF"/>
<rect width="2" height="2" transform="matrix(2.3597e-08 1 1 -2.3597e-08 16 4)" fill="#0051FF"/>
<rect x="16" y="18" width="2" height="2" transform="rotate(-90 16 18)" fill="#0051FF"/>
<rect x="6" y="4" width="2" height="2" transform="rotate(-90 6 4)" fill="#0051FF"/>
<rect x="8" y="4" width="2" height="2" transform="rotate(-90 8 4)" fill="#0051FF"/>
<rect x="10" y="4" width="2" height="2" transform="rotate(-90 10 4)" fill="#0051FF"/>
<rect x="12" y="4" width="2" height="2" transform="rotate(-90 12 4)" fill="#0051FF"/>
<rect width="2" height="2" transform="matrix(2.3597e-08 1 1 -2.3597e-08 6 18)" fill="#0051FF"/>
<rect width="2" height="2" transform="matrix(2.3597e-08 1 1 -2.3597e-08 6 16)" fill="#0051FF"/>
<rect width="2" height="2" transform="matrix(2.3597e-08 1 1 -2.3597e-08 6 14)" fill="#0051FF"/>
<rect width="2" height="2" transform="matrix(2.3597e-08 1 1 -2.3597e-08 6 12)" fill="#0051FF"/>
<rect width="2" height="2" transform="matrix(2.3597e-08 1 1 -2.3597e-08 6 10)" fill="#0051FF"/>
<rect width="2" height="2" transform="matrix(2.3597e-08 1 1 -2.3597e-08 6 8)" fill="#0051FF"/>
<rect width="2" height="2" transform="matrix(2.3597e-08 1 1 -2.3597e-08 6 6)" fill="#0051FF"/>
<rect width="2" height="2" transform="matrix(2.3597e-08 1 1 -2.3597e-08 6 4)" fill="#0051FF"/>
<rect width="2" height="2" transform="matrix(2.3597e-08 1 1 -2.3597e-08 18 6)" fill="#0051FF"/>
<rect x="18" y="16" width="2" height="2" transform="rotate(-90 18 16)" fill="#0051FF"/>
<rect x="18" y="14" width="2" height="2" transform="rotate(-90 18 14)" fill="#0051FF"/>
<rect x="18" y="12" width="2" height="2" transform="rotate(-90 18 12)" fill="#0051FF"/>
<rect x="18" y="10" width="2" height="2" transform="rotate(-90 18 10)" fill="#0051FF"/>
</svg>
