<svg width="417" height="417" viewBox="0 0 417 417" fill="none" xmlns="http://www.w3.org/2000/svg">
<mask id="mask0_529_12" style="mask-type:alpha" maskUnits="userSpaceOnUse" x="0" y="0" width="417" height="417">
<circle cx="208.5" cy="208.5" r="204.5" fill="#0154F9" stroke="#0054F9" stroke-width="8"/>
</mask>
<g mask="url(#mask0_529_12)">
<circle cx="208.5" cy="208.5" r="204.5" stroke="#0054F9" stroke-width="8"/>
<path d="M209 4C217.412 4 225.994 8.85985 234.334 18.9355C242.653 28.9859 250.324 43.7694 256.844 62.3896C269.87 99.5937 278 151.252 278 208.5C278 265.748 269.87 317.406 256.844 354.61C250.324 373.231 242.653 388.014 234.334 398.064C225.994 408.14 217.412 413 209 413C200.588 413 192.006 408.14 183.666 398.064C175.347 388.014 167.676 373.231 161.156 354.61C148.13 317.406 140 265.748 140 208.5C140 151.252 148.13 99.5937 161.156 62.3896C167.676 43.7694 175.347 28.9859 183.666 18.9355C192.006 8.85985 200.588 4 209 4Z" stroke="#0054F9" stroke-width="8"/>
<path d="M209 4C241.267 4 271.18 26.0152 293.243 63.1133C315.256 100.126 329 151.519 329 208.5C329 265.481 315.256 316.874 293.243 353.887C271.18 390.985 241.267 413 209 413C176.733 413 146.82 390.985 124.757 353.887C102.744 316.874 89 265.481 89 208.5C89 151.519 102.744 100.126 124.757 63.1133C146.82 26.0152 176.733 4 209 4Z" stroke="#0054F9" stroke-width="8"/>
<path d="M209 4C301.098 4 377 94.8031 377 208.5C377 322.197 301.098 413 209 413C116.902 413 41 322.197 41 208.5C41 94.8031 116.902 4 209 4Z" stroke="#0054F9" stroke-width="8"/>
<path d="M209 392C227.47 392 244.026 394.483 255.827 398.388C261.749 400.347 266.251 402.593 269.191 404.893C272.18 407.23 273 409.157 273 410.5C273 411.843 272.18 413.77 269.191 416.107C266.251 418.407 261.749 420.653 255.827 422.612C244.026 426.517 227.47 429 209 429C190.53 429 173.974 426.517 162.173 422.612C156.251 420.653 151.749 418.407 148.809 416.107C145.82 413.77 145 411.843 145 410.5C145 409.157 145.82 407.23 148.809 404.893C151.749 402.593 156.251 400.347 162.173 398.388C173.974 394.483 190.53 392 209 392Z" stroke="#0054F9" stroke-width="8"/>
<path d="M216 358C258.771 358 297.328 363.729 325.055 372.883C338.939 377.467 349.886 382.837 357.279 388.607C364.722 394.416 368 400.157 368 405.5C368 410.843 364.722 416.584 357.279 422.393C349.886 428.163 338.939 433.533 325.055 438.117C297.328 447.271 258.771 453 216 453C173.229 453 134.672 447.271 106.945 438.117C93.0608 433.533 82.1138 428.163 74.7207 422.393C67.2781 416.584 64 410.843 64 405.5C64 400.157 67.2781 394.416 74.7207 388.607C82.1138 382.837 93.0608 377.467 106.945 372.883C134.672 363.729 173.229 358 216 358Z" stroke="#0054F9" stroke-width="8"/>
<path d="M219 313C262.827 313 302.326 319.724 330.723 330.462C344.935 335.836 356.16 342.138 363.761 348.933C371.364 355.73 375 362.688 375 369.5C375 376.312 371.364 383.27 363.761 390.067C356.16 396.862 344.935 403.164 330.723 408.538C302.326 419.276 262.827 426 219 426C175.173 426 135.674 419.276 107.277 408.538C93.0649 403.164 81.8398 396.862 74.2393 390.067C66.636 383.27 63 376.312 63 369.5C63 362.688 66.636 355.73 74.2393 348.933C81.8398 342.138 93.0649 335.836 107.277 330.462C135.674 319.724 175.173 313 219 313Z" stroke="#0054F9" stroke-width="8"/>
<path d="M219 273C292.098 273 358.098 284.201 405.677 302.178C429.481 311.171 448.467 321.784 461.432 333.364C474.399 344.947 481 357.167 481 369.5C481 381.833 474.399 394.053 461.432 405.636C448.467 417.216 429.481 427.829 405.677 436.822C358.098 454.799 292.098 466 219 466C145.902 466 79.9024 454.799 32.3232 436.822C8.51936 427.829 -10.4672 417.216 -23.4316 405.636C-36.3989 394.053 -43 381.833 -43 369.5C-43 357.167 -36.3989 344.947 -23.4316 333.364C-10.4672 321.784 8.51936 311.171 32.3232 302.178C79.9024 284.201 145.902 273 219 273Z" stroke="#0054F9" stroke-width="8"/>
<path d="M219 219C331.587 219 433.336 236.246 506.793 263.994C543.536 277.874 572.994 294.304 593.194 312.345C613.398 330.389 624 349.711 624 369.5C624 389.289 613.398 408.611 593.194 426.655C572.994 444.696 543.536 461.126 506.793 475.006C433.336 502.754 331.587 520 219 520C106.413 520 4.6642 502.754 -68.793 475.006C-105.536 461.126 -134.994 444.696 -155.194 426.655C-175.398 408.611 -186 389.289 -186 369.5C-186 349.711 -175.398 330.389 -155.194 312.345C-134.994 294.304 -105.536 277.874 -68.793 263.994C4.6642 236.246 106.413 219 219 219Z" stroke="#0054F9" stroke-width="8"/>
<path d="M219 169C368.037 169 502.787 191.842 600.131 228.639C648.817 247.042 687.94 268.859 714.82 292.882C741.703 316.907 756 342.807 756 369.5C756 396.193 741.703 422.093 714.82 446.118C687.94 470.141 648.817 491.958 600.131 510.361C502.787 547.158 368.037 570 219 570C69.9627 570 -64.7866 547.158 -162.131 510.361C-210.817 491.958 -249.94 470.141 -276.82 446.118C-303.703 422.093 -318 396.193 -318 369.5C-318 342.807 -303.703 316.907 -276.82 292.882C-249.94 268.859 -210.817 247.042 -162.131 228.639C-64.7866 191.842 69.9627 169 219 169Z" stroke="#0054F9" stroke-width="8"/>
<path d="M219 119C404.488 119 572.236 147.439 693.468 193.283C754.098 216.211 802.886 243.414 836.446 273.419C870.009 303.426 888 335.902 888 369.5C888 403.098 870.009 435.574 836.446 465.581C802.886 495.586 754.098 522.789 693.468 545.717C572.236 591.561 404.488 620 219 620C33.5121 620 -134.236 591.561 -255.468 545.717C-316.098 522.789 -364.886 495.586 -398.446 465.581C-432.009 435.574 -450 403.098 -450 369.5C-450 335.902 -432.009 303.426 -398.446 273.419C-364.886 243.414 -316.098 216.211 -255.468 193.283C-134.236 147.439 33.5121 119 219 119Z" stroke="#0054F9" stroke-width="8"/>
<path d="M219 73C438.177 73 636.426 106.587 779.735 160.756C851.404 187.846 909.126 220.006 948.859 255.515C988.595 291.025 1010 329.552 1010 369.5C1010 409.448 988.595 447.975 948.859 483.485C909.126 518.994 851.404 551.154 779.735 578.244C636.426 632.413 438.177 666 219 666C-0.1773 666 -198.426 632.413 -341.735 578.244C-413.404 551.154 -471.126 518.994 -510.859 483.485C-550.595 447.975 -572 409.448 -572 369.5C-572 329.552 -550.595 291.025 -510.859 255.515C-471.126 220.006 -413.404 187.846 -341.735 160.756C-198.426 106.587 -0.1773 73 219 73Z" stroke="#0054F9" stroke-width="8"/>
<path d="M219 32C453.089 32 664.838 67.8811 817.919 125.76C894.474 154.704 956.149 189.074 998.615 227.034C1041.08 264.997 1064 306.221 1064 349C1064 391.779 1041.08 433.003 998.615 470.966C956.149 508.926 894.474 543.296 817.919 572.24C664.838 630.119 453.089 666 219 666C-15.0889 666 -226.838 630.119 -379.919 572.24C-456.474 543.296 -518.149 508.926 -560.615 470.966C-603.084 433.003 -626 391.779 -626 349C-626 306.221 -603.084 264.997 -560.615 227.034C-518.149 189.074 -456.474 154.704 -379.919 125.76C-226.838 67.8811 -15.0889 32 219 32Z" stroke="#0054F9" stroke-width="8"/>
<path d="M209 414V0" stroke="#0054F9" stroke-width="8"/>
</g>
</svg>
